mtllib obelisk.mtl
usemtl obelisk

o cube
v 0.750479 0.687902 0.250000
v 0.500000 0.949554 0.500000
v 0.750479 0.687902 0.750000
v 0.875000 0.125000 0.875000
v 0.875000 0.125000 0.125000
v 0.875000 0.000000 0.875000
v 0.875000 -0.000000 0.125000
v 0.125000 0.125000 0.125000
v 0.125000 0.125000 0.875000
v 0.125000 -0.000000 0.125000
v 0.125000 0.000000 0.875000
v 0.750000 0.687500 0.750000
v 0.750000 0.687500 0.250000
v 0.750000 0.125000 0.750000
v 0.750000 0.125000 0.250000
v 0.250000 0.687500 0.250000
v 0.250000 0.687500 0.750000
v 0.250000 0.125000 0.250000
v 0.250000 0.125000 0.750000
v 0.750000 0.687902 0.249521
v 0.500000 0.496391 0.088824
v 0.250000 0.687902 0.249521
v 0.750000 0.687902 0.750479
v 0.250000 0.687902 0.750479
v 0.500000 0.496391 0.911176
v 0.249521 0.687902 0.250000
v 0.088824 0.496391 0.500000
v 0.249521 0.687902 0.750000
v 0.750429 0.687961 0.749923
vn -0.3653 0.6441 -0.6720
vn -0.5331 0.8251 0.1871
vn 0.0491 0.9157 -0.3989
vn -0.0000 -0.0000 -1.0000
vn 1.0000 -0.0000 -0.0000
vn -0.0000 -0.0000 1.0000
vn -1.0000 -0.0000 -0.0000
vn -0.0000 1.0000 -0.0000
vn -0.0000 -1.0000 -0.0000
vn 0.7660 0.6428 -0.0000
vn -0.0000 0.6428 0.7660
vn -0.0000 0.6428 -0.7660
vn -0.7660 0.6428 -0.0000
vt 0.125000 1.000000
vt 0.000039 1.000000
vt 0.000000 1.000000
vt 0.312500 0.578125
vt 0.500000 0.578125
vt 0.500000 0.609375
vt 0.312500 0.609375
vt 0.125000 0.546875
vt 0.312500 0.546875
vt 0.125000 0.578125
vt 0.500000 0.546875
vt 0.437500 0.968750
vt 0.625000 0.968750
vt 0.625000 1.000000
vt 0.437500 1.000000
vt 0.187500 1.000000
vt 0.000000 0.812500
vt 0.187500 0.812500
vt 0.187500 0.625000
vt 0.000000 0.625000
vt 0.187500 0.859375
vt 0.312500 0.859375
vt 0.312500 1.000000
vt 0.187500 0.718750
vt 0.312500 0.718750
vt 0.187500 0.578125
vt 0.437500 0.859375
vt 0.312500 0.734375
vt 0.437500 0.734375
vt 0.437500 0.609375
vt 0.125000 0.625000
vt 0.000000 0.500000
f 2/1/1 29/2/2 3/3/3
f 7/4/4 10/5/4 8/6/4 5/7/4
f 6/8/5 7/9/5 5/4/5 4/10/5
f 11/9/6 6/11/6 4/5/6 9/4/6
f 10/12/7 11/13/7 9/14/7 8/15/7
f 9/16/8 4/3/8 5/17/8 8/18/8
f 10/19/9 7/20/9 6/17/9 11/18/9
f 15/21/4 18/22/4 16/23/4 13/16/4
f 14/24/5 15/25/5 13/22/5 12/21/5
f 19/26/6 14/4/6 12/25/6 17/24/6
f 18/22/7 19/27/7 17/15/7 16/23/7
f 17/27/8 12/22/8 13/28/8 16/29/8
f 18/30/9 15/7/9 14/28/9 19/29/9
f 3/31/10 1/32/10 2/20/10
f 24/31/11 23/32/11 2/20/11
f 20/32/12 22/31/12 2/20/12
f 26/32/13 28/31/13 2/20/13
